<?xml version="1.0" encoding="UTF-8"?>
<!-- Generated by Pixelmator Pro Trial 3.6.14 -->
<svg width="224" height="248" viewBox="0 0 224 248" xmlns="http://www.w3.org/2000/svg">
    <g id="Group">
        <path id="Path" fill="#f35d14" stroke="none" d="M 127.990005 4.977997 C 129.072006 5.071991 129.964996 5.088989 130.837006 5.238007 C 133.001007 5.606995 134.867996 6.589996 135.822006 8.619995 C 136.576996 10.225006 137.643005 11.19101 139.287994 11.822998 C 141.737 12.764008 143.481995 14.595001 144.815994 16.846008 C 145.727005 18.384003 146.617996 19.957001 147.725006 21.350006 C 148.636993 22.497009 149.686996 23.785995 150.966995 24.341995 C 154.669006 25.951004 157.475998 28.475006 159.694 31.927002 C 160.893005 31.996002 162.069 32.130997 163.242996 32.115997 C 165.033005 32.093994 166.824997 32.009995 168.610001 31.878998 C 172.815002 31.570007 176.255997 32.809998 178.526001 36.576996 C 179.408005 38.041992 180.802994 38.908005 182.285995 39.651001 C 183.617996 40.317993 185.013 40.886993 186.270004 41.673004 C 189.181 43.492996 190.031006 45.67099 189.063004 48.923004 C 188.554001 50.632004 187.826996 52.281006 187.126999 53.925995 C 186.251007 55.985992 186.106003 57.744003 187.802994 59.666992 C 189.134003 61.175003 189.828995 63.244003 191.026001 65.472 C 191.270004 65.565002 191.932999 65.882004 192.630997 66.071991 C 194.798004 66.662994 196.363998 67.876007 197.048004 70.089996 C 197.179993 70.515991 197.272003 71.046997 197.574005 71.313004 C 200.143997 73.582001 200.807007 76.886002 202.339996 79.722 C 203.733994 82.300003 204.483002 84.921997 204.819 87.76001 C 205.011002 89.386993 205.367996 90.994003 205.580002 92.619003 C 205.888 94.97699 206.306 97.337997 206.363007 99.705994 C 206.453995 103.492004 206.981995 107.07901 208.845993 110.481995 C 209.675995 111.996994 209.908997 113.865005 210.266998 115.602005 C 210.535995 116.910995 210.623001 118.266006 210.699997 119.604996 C 210.817993 121.636993 211.559006 123.373993 212.996994 124.798996 C 216.059998 127.832993 216.626999 131.505997 215.804001 135.550995 C 215.654999 136.281998 215.615005 137.042007 215.404007 137.751999 C 213.746994 143.322998 212.057007 148.884003 210.382996 154.449005 C 209.695999 156.731995 208.904007 158.992004 208.373993 161.311005 C 207.671005 164.382004 208.587006 166.899002 211.399002 168.582993 C 213.574005 169.886002 215.770996 171.158005 217.871002 172.574005 C 219.341003 173.565002 220.820007 174.630997 222.016006 175.921005 C 223.712997 177.751999 223.893005 179.929001 222.511993 182.095993 C 221.953003 182.973999 221.330994 183.820999 220.660004 184.617004 C 219.699005 185.757004 218.692993 186.863998 217.660004 187.940002 C 203.190002 203.014008 188.725006 218.091995 174.225006 233.136002 C 171.740997 235.714005 169.132996 238.175995 166.520996 240.626007 C 164.044998 242.949005 161.403 244.924988 157.815994 243.197998 C 154.828995 245.890015 151.921005 247.634003 148.686005 243.888 C 147.416 244.881012 146.395996 245.71701 145.337006 246.5 C 142.216995 248.806 140.139008 248.480011 137.787994 245.333008 C 137.612 245.097992 137.561005 244.766998 137.376999 244.542999 C 137.203003 244.330994 136.929001 244.200012 136.699005 244.033997 C 131.604996 245.957001 131.171005 245.838013 127.714005 241.584991 C 127.423004 241.531006 127.130997 241.47699 126.839005 241.424988 C 125.242996 241.140991 123.610001 240.510986 122.059998 240.671997 C 120.496002 240.834991 119.054001 241.927002 117.488998 242.359985 C 112.824005 243.649994 106.488998 241.458008 104.274002 237.134003 C 101.873001 232.447998 98.074005 228.740005 95.831001 223.994995 C 95.028999 222.298996 93.571999 221.332001 91.672997 220.917999 C 88.583 220.244995 85.473999 219.776001 82.349998 220.350006 C 77.616997 221.218994 72.852997 221.403 68.079002 221.166 C 64.696999 220.998993 61.571999 221.681 58.558998 223.138 C 56.411003 224.175995 54.264 225.225998 52.063004 226.139008 C 48.867996 227.464005 45.543999 228.259003 42.047997 228.149002 C 37.166 227.996002 34.156998 225.914001 32.725998 221.283997 C 31.938 218.733002 31.612999 216.042007 31.032001 213.423996 C 30.645 211.681 30.279999 209.921997 29.714001 208.235001 C 29.143002 206.535004 27.853001 205.5 25.999001 205.542007 C 23.917 205.587997 21.834999 205.759995 19.759998 205.953003 C 18.724998 206.048996 17.713001 206.401993 16.678001 206.490005 C 11.962002 206.889999 8.904999 203.615005 9.799 198.994995 C 10.194 196.955002 10.855999 194.951004 11.570999 192.994003 C 12.202 191.266998 12.630001 189.669998 11.914001 187.806 C 11.581001 186.940002 11.828999 185.755005 12.081001 184.783997 C 12.416 183.494003 12.977001 182.257004 13.505001 181.024002 C 13.999001 179.871994 14.230999 178.800003 13.431 177.654007 C 12.185001 175.869995 13.562 173.757996 12.922001 172.011002 C 12.293999 170.298004 11.470001 168.774002 12.167999 166.899002 C 12.651001 165.602005 12.119999 164.468002 11.110001 163.733994 C 9.034 162.225998 8.011002 160.244995 7.630001 157.737 C 7.458 156.606995 6.772999 155.529999 6.209999 154.490005 C 5.030998 152.313995 5.116001 150.194 6.379002 148.119003 C 7.464001 146.335999 8.492001 144.498001 9.765999 142.856003 C 12.693001 139.085999 15.759998 135.423996 18.759998 131.709 C 19.397999 130.919006 19.991001 130.093002 20.999001 128.764008 C 18.379002 129.246002 16.384998 129.690994 14.368 129.960007 C 12.752998 130.175003 11.095001 130.362 9.484001 130.227997 C 7.275002 130.044006 5.431999 128.996994 4.754002 126.722 C 4.303001 125.210007 3.386002 124.201004 2.223999 123.220001 C 0.736 121.964005 0.330002 120.212997 0.709 118.332993 C 1.355 115.123993 1.922001 111.889008 2.803001 108.742996 C 3.231998 107.212997 4.140999 105.744995 5.108002 104.455994 C 6.355999 102.791992 7.901001 101.354004 9.278 99.783997 C 11.138 97.662994 12.959 95.507996 14.935001 93.208008 C 14.228001 92.362 13.723999 91.652008 13.115002 91.049011 C 10.327 88.287003 9.022999 84.862 8.637001 81.044998 C 8.306999 77.778992 8.081001 74.502991 7.777 71.234009 C 7.507999 68.339996 8.042 65.628998 9.233002 62.96701 C 10.646999 59.807999 12.352001 56.84201 14.57 54.20401 C 19.477001 48.367004 23.813999 42.117004 28.077999 35.811005 C 34.405998 26.451004 41.954002 18.266998 51.242996 11.759003 C 51.732002 11.416992 52.189003 11.028992 52.682999 10.695984 C 55.887001 8.536987 57.761002 8.623993 60.720001 11.059998 C 61.169998 11.429993 61.602997 11.820984 61.981003 12.149002 C 69.171997 9.873993 69.473 9.917999 74.507004 14.031998 C 75.361 13.886993 76.383003 13.752991 77.387001 13.535004 C 79.181999 13.145996 80.959999 13.069 82.636002 13.919006 C 84.135002 14.679993 85.505997 14.404999 86.879997 13.647995 C 90.015999 11.92099 93.149002 10.190002 96.294998 8.481995 C 97.473007 7.84201 98.651993 7.183014 99.886993 6.671997 C 102.873993 5.434998 104.550995 6.312012 105.514008 9.519012 C 105.598999 9.800995 105.669006 10.088013 105.820007 10.645996 C 106.597 10.175995 107.352997 9.807007 108.009995 9.307007 C 110.738998 7.226013 113.410004 5.067993 116.160995 3.016998 C 117.350006 2.131012 118.621994 1.307007 119.962006 0.681 C 122.996002 -0.734985 125.345001 0.059998 127.169998 2.997009 C 127.475998 3.497986 127.628998 4.093994 127.990005 4.977997 Z"/>
        <g id="lettergroup">
            <g id="g1">
                <g id="g2">
                    <path id="path1" fill="#ffffff" stroke="none" d="M 45.515541 172.707718 C 49.617569 171.65744 53.144905 169.973038 56.157021 167.634689 C 59.149315 165.316162 61.329132 162.700378 62.716286 159.787354 C 64.083633 156.894135 65.015007 153.782928 65.490608 150.453766 C 65.966202 147.124573 65.787857 143.835037 64.915924 140.60495 C 63.310791 133.470993 59.208763 127.288239 52.64949 122.056671 C 49.99408 119.85704 46.050591 117.47905 40.819023 114.922714 C 37.866364 113.495926 35.726181 112.346573 34.398468 111.494461 C 29.44434 108.165283 27.343784 103.270599 28.116631 96.790588 C 28.215714 95.561966 28.592228 94.392792 29.24617 93.302887 C 29.919933 92.212982 30.752228 91.301422 31.743053 90.588028 C 32.7537 89.874634 33.823792 89.418854 34.953331 89.240494 C 38.678841 88.467651 42.047653 89.141418 45.099396 91.241959 C 45.277748 91.420319 45.515541 91.63829 45.81279 91.876099 C 46.090225 92.113892 46.427101 92.371506 46.803619 92.668762 C 47.18013 92.946182 47.477379 93.144348 47.655731 93.223618 C 48.329491 93.798294 48.805092 94.095551 49.08252 94.095551 C 49.379768 94.095551 49.855362 93.798294 50.509308 93.223618 C 51.757751 92.09407 53.798851 90.191696 56.652435 87.516464 C 57.504547 86.664352 58.178307 85.950958 58.6539 85.376282 C 59.783447 84.147644 59.842896 82.859573 58.792618 81.531876 C 58.594452 81.15535 58.356651 80.858109 58.079224 80.679764 C 48.844719 72.495529 38.718475 70.394974 27.680668 74.397919 C 19.417175 77.350586 14.086529 83.771133 11.708546 93.659592 C 9.707073 101.74472 11.470745 109.730789 16.97974 117.637589 C 19.555889 121.244186 23.539013 124.533737 28.968742 127.466583 C 30.019016 128.04126 31.564705 128.833923 33.605804 129.824753 C 35.646912 130.835388 36.915169 131.469528 37.39077 131.746948 C 40.34343 133.272827 42.899757 135.135574 45.099396 137.315399 C 47.378296 139.891541 48.706001 142.606415 49.08252 145.459991 C 49.558113 149.542206 48.507835 152.593933 45.951508 154.575592 C 42.899757 156.874313 39.471504 157.766052 35.666725 157.290466 C 32.337555 156.91394 29.24617 155.62587 26.392593 153.446045 C 25.916996 153.06955 24.01461 151.484222 20.685432 148.729721 C 19.734238 147.976685 19.020844 147.600174 18.545246 147.600174 C 18.069649 147.600174 17.415703 148.016327 16.563595 148.868439 C 15.315151 150.017792 13.551479 151.682373 11.272579 153.862198 L 8.716248 156.438354 C 7.765053 157.488617 7.705605 158.53891 8.557716 159.569366 C 8.854965 159.965698 9.271111 160.441284 9.845791 160.996155 C 13.075886 164.146973 16.40506 166.762756 19.833321 168.843506 C 25.441399 172.172668 31.584522 173.837265 38.242882 173.837265 C 40.046181 173.93634 42.483612 173.55983 45.515541 172.707718 Z M 99.456131 131.033554 C 104.390457 130.855209 109.582382 129.804932 115.012115 127.902542 C 119.569916 126.277588 123.414322 123.661804 126.56514 120.055206 C 129.696167 116.448593 131.856155 112.544739 133.045166 108.363449 C 134.234146 104.162338 134.511581 100.040512 133.837814 95.938492 C 132.411026 87.001236 127.694687 80.541046 119.708633 76.538101 C 115.527344 74.437546 110.870453 73.347641 105.737976 73.248566 C 101.933197 73.070206 93.986771 72.97113 81.898697 72.97113 C 80.570984 72.87204 79.619789 73.129654 79.045113 73.763794 C 78.470436 74.378098 78.193001 75.349106 78.193001 76.676819 L 78.193001 79.609665 L 78.193001 82.52269 C 78.391167 120.570435 78.529884 149.066605 78.628967 167.991394 C 78.628967 169.140747 78.668594 170.032486 78.767677 170.706253 C 78.94603 172.509552 79.85759 173.421112 81.482544 173.421112 C 85.18824 173.520203 88.616493 173.520203 91.747505 173.421112 C 93.649895 173.322021 94.700172 172.271759 94.878517 170.270294 L 94.878517 168.130096 L 94.878517 157.231018 L 94.878517 144.389893 L 94.878517 133.470993 L 94.878517 131.192093 C 97.652832 131.093002 99.15889 131.033554 99.456131 131.033554 Z M 94.878517 89.656647 L 95.314484 89.517929 C 101.497238 89.418854 106.015411 89.656647 108.868988 90.231323 C 109.54274 90.330414 110.335419 90.568207 111.286606 90.944717 C 113.862747 91.796829 115.626434 93.263245 116.577621 95.304352 C 117.528809 97.345459 117.865692 99.465836 117.568451 101.645645 C 117.291016 103.64711 116.617249 105.509872 115.566971 107.214096 C 114.239273 109.592072 112.336884 111.256668 109.859818 112.207855 C 105.500183 113.912079 100.744217 114.724548 95.591919 114.625473 C 95.51265 114.625473 95.274849 114.585846 94.878517 114.486755 Z M 195.051086 131.330811 C 195.150162 135.41301 195.189804 141.575958 195.189804 149.799805 L 195.189804 168.288635 C 195.189804 169.239838 195.229431 169.854141 195.328506 170.131561 C 195.427582 172.232117 196.517502 173.322021 198.618042 173.421112 C 201.848145 173.520203 204.899887 173.520203 207.753464 173.421112 C 209.081177 173.421112 210.0522 173.10405 210.666504 172.489746 C 211.280807 171.875427 211.597885 170.904419 211.597885 169.556885 L 211.597885 168.566071 C 211.597885 124.058136 211.558243 93.699219 211.459167 77.528931 C 211.459167 76.676819 211.399719 75.923782 211.32045 75.250031 C 211.023193 73.922318 210.171097 73.169296 208.744293 72.97113 C 208.367783 72.87204 207.793091 72.832413 207.04007 72.832413 C 201.986862 72.931503 199.430527 72.97113 199.331451 72.97113 C 197.607407 72.87204 196.418411 73.189102 195.764465 73.902496 C 195.090714 74.615891 194.813278 75.824707 194.912354 77.528931 L 194.912354 110.20639 L 194.912354 110.860336 L 194.912354 111.57373 L 194.912354 112.207855 C 193.763 112.406021 188.19455 112.524918 178.207031 112.564545 C 168.219498 112.604187 162.888855 112.485291 162.234894 112.207855 L 162.234894 110.345108 L 162.234894 82.245255 C 162.234894 78.717926 162.175446 76.676819 162.096191 76.102142 C 162.096191 74.120483 161.045914 73.010757 158.945358 72.832413 L 157.815826 72.832413 C 152.584259 72.931503 149.809937 72.97113 149.532516 72.97113 C 146.778015 72.772964 145.450302 74.061035 145.529572 76.815536 L 145.529572 77.390213 C 145.529572 83.394623 145.569199 91.836456 145.608826 102.715744 C 145.648468 113.614822 145.707916 123.523087 145.747543 132.460342 C 145.806992 141.417419 145.826813 149.819626 145.826813 157.726425 C 145.826813 163.532669 145.86644 167.575241 145.96553 169.854141 C 146.064621 171.181854 146.361862 172.11322 146.896912 172.628448 C 147.41214 173.163498 148.343506 173.421112 149.671234 173.421112 C 150.523346 173.421112 153.376907 173.460754 158.231964 173.55983 C 158.529221 173.55983 158.806656 173.520203 159.084076 173.421112 C 161.085541 173.222961 162.135818 172.133041 162.234894 170.131561 C 162.333984 169.755066 162.333984 168.704773 162.234894 167.000549 L 162.234894 157.944397 L 162.234894 149.16568 L 162.234894 140.030273 L 162.234894 131.192093 L 162.234894 130.538147 L 162.234894 129.765305 L 162.234894 129.05191 L 195.051086 129.05191 Z"/>
                </g>
            </g>
        </g>
    </g>
</svg>
